<svg xmlns="http://www.w3.org/2000/svg" xmlns:xlink="http://www.w3.org/1999/xlink" preserveAspectRatio="xMidYMid meet" version="1.0" viewBox="0.0 0.0 500.0 702.1" zoomAndPan="magnify" style="fill: rgb(0, 0, 0);" original_string_length="2056" width="48.6244038930886px" height="68.2686630658964px"><defs><clipPath id="__id0_s1znshf6l7"><path d="M 0 0 L 500 0 L 500 702.128906 L 0 702.128906 Z M 0 0"/></clipPath></defs><g><g clip-path="url(#__id0_s1znshf6l7)" id="__id1_s1znshf6l7"><path d="M 250 702.128906 C 250 702.128906 0 388.074219 0 250.003906 C 0 111.929688 111.929688 0.00390625 250 0.00390625 C 388.070312 0.00390625 500 111.929688 500 250.003906 C 500 388.074219 250 702.128906 250 702.128906" style="fill: rgb(145, 58, 58);"/></g><g id="__id2_s1znshf6l7"><path d="M 250 57.242188 C 143.539062 57.242188 57.238281 143.542969 57.238281 250.003906 C 57.238281 356.460938 143.539062 442.761719 250 442.761719 C 356.460938 442.761719 442.761719 356.460938 442.761719 250.003906 C 442.761719 143.542969 356.460938 57.242188 250 57.242188" style="fill: rgb(255, 255, 255);"/></g><g id="__id3_s1znshf6l7"><path d="M 319.136719 223.765625 C 315.929688 230.410156 311.410156 235.546875 305.582031 239.15625 C 299.75 242.773438 292.988281 244.578125 285.292969 244.578125 L 221.277344 244.578125 L 221.277344 156.777344 L 285.292969 156.777344 C 292.988281 156.777344 299.75 158.613281 305.582031 162.285156 C 311.410156 165.960938 315.929688 171.117188 319.136719 177.765625 C 322.34375 184.410156 323.949219 192.105469 323.949219 200.851562 C 323.949219 209.484375 322.34375 217.117188 319.136719 223.765625 Z M 350.972656 159.925781 C 344.613281 148.148438 335.667969 139.023438 324.121094 132.550781 C 312.578125 126.078125 299.226562 122.84375 284.070312 122.84375 L 185.597656 122.84375 L 185.597656 377.160156 L 221.277344 377.160156 L 221.277344 278.511719 L 284.070312 278.511719 C 299.226562 278.511719 312.578125 275.308594 324.121094 268.890625 C 335.667969 262.480469 344.613281 253.414062 350.972656 241.695312 C 357.324219 229.976562 360.503906 216.363281 360.503906 200.851562 C 360.503906 185.347656 357.324219 171.703125 350.972656 159.925781" style="fill: rgb(145, 58, 58);"/></g></g></svg>